<?xml version="1.0" encoding="utf-8"?>
<!-- Generator: Adobe Illustrator 28.1.0, SVG Export Plug-In . SVG Version: 6.00 Build 0)  -->
<svg version="1.1" id="cart" xmlns="http://www.w3.org/2000/svg" xmlns:xlink="http://www.w3.org/1999/xlink" x="0px" y="0px"
	 viewBox="0 0 48 48" style="enable-background:new 0 0 48 48;" xml:space="preserve">
<style type="text/css">
	.st0{fill:#FFFFFF;}
	.st1{fill:none;}
</style>
<path class="st0" d="M14,36c-2.2,0-4,1.8-4,4s1.8,4,4,4s4-1.8,4-4S16.2,36,14,36z M2,4v4h4l7.2,15.2l-2.7,4.9
	C10.2,28.6,10,29.3,10,30c0,2.2,1.8,4,4,4h24v-4H14.9c-0.3,0-0.5-0.2-0.5-0.5c0-0.1,0-0.2,0.1-0.2l1.8-3.3h14.9
	c1.5,0,2.8-0.8,3.5-2.1l7.2-13c0.2-0.3,0.2-0.6,0.2-1c0-1.1-0.9-2-2-2H10.4L8.5,4C8.5,4,2,4,2,4z M34,36c-2.2,0-4,1.8-4,4s1.8,4,4,4
	s4-1.8,4-4S36.2,36,34,36z"/>
<path class="st1" d="M0,0h48v48H0V0z"/>
</svg>
